<svg width="88" height="72" viewBox="0 0 88 72" fill="none" xmlns="http://www.w3.org/2000/svg">
<rect width="88" height="72" rx="36" fill="#FDC92E"/>
<path d="M43.7933 45.36C41.4633 45.36 39.1333 44.99 36.9233 44.25C36.0833 43.96 35.4433 43.37 35.1633 42.6C34.8733 41.83 34.9733 40.98 35.4333 40.22L36.5833 38.31C36.8233 37.91 37.0433 37.11 37.0433 36.64V33.75C37.0433 30.03 40.0733 27 43.7933 27C47.5133 27 50.5433 30.03 50.5433 33.75V36.64C50.5433 37.1 50.7633 37.91 51.0033 38.32L52.1433 40.22C52.5733 40.94 52.6533 41.81 52.3633 42.6C52.0733 43.39 51.4433 43.99 50.6533 44.25C48.4533 44.99 46.1233 45.36 43.7933 45.36ZM43.7933 28.5C40.9033 28.5 38.5433 30.85 38.5433 33.75V36.64C38.5433 37.37 38.2433 38.45 37.8733 39.08L36.7233 40.99C36.5033 41.36 36.4433 41.75 36.5733 42.08C36.6933 42.42 36.9933 42.68 37.4033 42.82C41.5833 44.22 46.0133 44.22 50.1933 42.82C50.5533 42.7 50.8333 42.43 50.9633 42.07C51.0933 41.71 51.0633 41.32 50.8633 40.99L49.7133 39.08C49.3333 38.43 49.0433 37.36 49.0433 36.63V33.75C49.0433 30.85 46.6933 28.5 43.7933 28.5Z" fill="#1B1B1B"/>
</svg>
